# xmcd CD database file
#
# Track frame offsets:
#	150
#	20592
#	43052
#	63605
#	81707
#	101587
#	120432
#	139875
#	158285
#	175047
#	193545
#	212152
#	233090
#	252680
#
# Disc length: 3680 seconds
#
# Revision: 0
# Processed by: cddbd v1.5PL3 Copyright (c) Steve Scherf et al.
# Submitted via: CDex 1.51
#
DISCID=c40e5e0e
DTITLE=Jon Secada - heart, soul and a voice
DYEAR=1994
DGENRE=Pop
TTITLE0=Whipped
TTITLE1=Take Me
TTITLE2=If You Go
TTITLE3=Good Feelings
TTITLE4=Where Do I Go From You
TTITLE5=Fat Chance
TTITLE6=Mental Picture
TTITLE7=Stay
TTITLE8=La, La, La
TTITLE9=Don't Be Silly
TTITLE10=Eyes Of A Fool
TTITLE11=Si Te Vas (If You Go)
TTITLE12=Tuyo (Take Me)
TTITLE13=I Will Always Remember
EXTD=YEAR: 1994
EXTT0=
EXTT1=
EXTT2=
EXTT3=
EXTT4=
EXTT5=
EXTT6=
EXTT7=
EXTT8=
EXTT9=
EXTT10=
EXTT11=
EXTT12=
EXTT13=
PLAYORDER=
